<?xml version="1.0" encoding="UTF-8"?>
<svg id="Camada_1" xmlns="http://www.w3.org/2000/svg" version="1.1" xmlns:xlink="http://www.w3.org/1999/xlink" viewBox="0 0 300 300">
  <!-- Generator: Adobe Illustrator 29.5.1, SVG Export Plug-In . SVG Version: 2.1.0 Build 141)  -->
  <defs>
    <style>
      .st0 {
        fill: #2f4f45;
      }

      .st1 {
        fill: #87774f;
      }

      .st2 {
        fill: none;
      }

      .st3 {
        fill: url(#Gradiente_sem_nome_16);
      }

      .st4 {
        fill: #004e2d;
      }
    </style>
    <linearGradient id="Gradiente_sem_nome_16" data-name="Gradiente sem nome 16" x1="9.52" y1="185.03" x2="290.48" y2="114.97" gradientUnits="userSpaceOnUse">
      <stop offset="0" stop-color="#004e2d"/>
      <stop offset=".28" stop-color="#014e2d"/>
      <stop offset=".38" stop-color="#08502f"/>
      <stop offset=".45" stop-color="#145432"/>
      <stop offset=".51" stop-color="#255936"/>
      <stop offset=".56" stop-color="#3b603b"/>
      <stop offset=".6" stop-color="#566842"/>
      <stop offset=".64" stop-color="#76714a"/>
      <stop offset=".66" stop-color="#87774f"/>
    </linearGradient>
  </defs>
  <g>
    <g>
      <path class="st0" d="M49.28,124.26c0-3.25,2.47-5.65,5.82-5.65,1.62,0,3.08.54,4.06,1.62l-.75.75c-.9-.92-2.01-1.32-3.28-1.32-2.68,0-4.69,1.97-4.69,4.6s2.01,4.6,4.69,4.6c1.27,0,2.38-.4,3.28-1.33l.75.75c-.98,1.08-2.44,1.63-4.08,1.63-3.33,0-5.8-2.39-5.8-5.65Z"/>
      <path class="st0" d="M60.44,124.26c0-3.24,2.47-5.65,5.84-5.65s5.82,2.39,5.82,5.65-2.49,5.65-5.82,5.65-5.84-2.41-5.84-5.65ZM70.93,124.26c0-2.65-1.98-4.6-4.65-4.6s-4.68,1.95-4.68,4.6,2,4.6,4.68,4.6,4.65-1.95,4.65-4.6Z"/>
      <path class="st0" d="M82.32,129.81l-2.54-3.57c-.29.03-.57.05-.89.05h-2.98v3.52h-1.17v-11.1h4.16c2.82,0,4.54,1.43,4.54,3.81,0,1.74-.92,2.97-2.54,3.49l2.71,3.81h-1.28ZM82.25,122.52c0-1.78-1.17-2.79-3.39-2.79h-2.95v5.57h2.95c2.22,0,3.39-1.03,3.39-2.78Z"/>
      <path class="st0" d="M88.2,119.72h-3.9v-1.01h8.98v1.01h-3.9v10.09h-1.17v-10.09Z"/>
      <path class="st0" d="M95.15,118.71h1.17v11.1h-1.17v-11.1Z"/>
      <path class="st0" d="M109.22,118.71v11.1h-.97l-7.14-9.01v9.01h-1.17v-11.1h.97l7.15,9.01v-9.01h1.16Z"/>
      <path class="st0" d="M119.8,126.84h-6.18l-1.33,2.97h-1.22l5.07-11.1h1.16l5.07,11.1h-1.24l-1.33-2.97ZM119.37,125.89l-2.66-5.96-2.66,5.96h5.33Z"/>
      <path class="st0" d="M123.15,128.46l.46-.9c.79.78,2.2,1.35,3.66,1.35,2.08,0,2.98-.87,2.98-1.97,0-3.04-6.84-1.17-6.84-5.28,0-1.63,1.27-3.04,4.09-3.04,1.25,0,2.55.36,3.44.98l-.4.94c-.95-.62-2.06-.92-3.04-.92-2.03,0-2.93.9-2.93,2.01,0,3.04,6.84,1.21,6.84,5.25,0,1.63-1.3,3.03-4.14,3.03-1.67,0-3.3-.59-4.12-1.44Z"/>
    </g>
    <path class="st4" d="M49.28,184.3v-.62l1.25-.5c.83-.29,1.38-.68,1.65-1.18.27-.5.4-1.16.4-1.99v-32.52c0-.83-.12-1.5-.37-1.99-.25-.5-.81-.89-1.68-1.18l-1.25-.5v-.62h16.01v.62l-1.25.5c-.83.29-1.38.69-1.65,1.18-.27.5-.4,1.16-.4,1.99v32.52c0,.83.13,1.48.4,1.96.27.48.82.88,1.65,1.22l1.25.5v.62h-16.01Z"/>
    <path class="st4" d="M121.4,184.48c-3.16,0-5.9-.65-8.22-1.96-2.33-1.31-4.12-3.17-5.39-5.58-1.27-2.41-1.9-5.23-1.9-8.47s.67-6.04,2.02-8.41c1.35-2.37,3.2-4.19,5.54-5.48,2.35-1.29,4.99-1.93,7.94-1.93s5.59.63,7.91,1.9c2.33,1.27,4.16,3.08,5.51,5.45,1.35,2.37,2.02,5.19,2.02,8.47s-.63,6.12-1.9,8.5c-1.27,2.39-3.05,4.24-5.36,5.54-2.3,1.31-5.04,1.96-8.19,1.96ZM121.4,183.23c1.45,0,2.62-.41,3.49-1.25.87-.83,1.51-2.3,1.9-4.42.39-2.12.59-5.11.59-8.97s-.2-6.92-.59-9.03c-.4-2.12-1.03-3.59-1.9-4.42-.87-.83-2.03-1.25-3.49-1.25s-2.63.42-3.52,1.25c-.89.83-1.54,2.3-1.93,4.42-.4,2.12-.59,5.13-.59,9.03s.2,6.85.59,8.97c.39,2.12,1.04,3.59,1.93,4.42.89.83,2.07,1.25,3.52,1.25Z"/>
    <path class="st4" d="M178.73,189.82c-1.85-1.8-4.51-3.03-7.08-3.21-.88-.06-1.78-.06-2.68.01v-25.76c-.22-2.27-.93-4.01-2.13-5.23-1.48-1.5-3.58-2.24-6.32-2.24-1.79,0-3.59.41-5.42,1.25-1.83.83-3.47,1.89-4.92,3.18l-.5-3.74-.62-.62-10.65,3.61v.62l.93.25c.83.16,1.39.47,1.68.9.29.44.44,1.11.44,2.02v19.5c0,1.62-.73,2.63-2.18,3.05l-.87.25v.62h14.64v-.62l-.56-.19c-1.46-.42-2.18-1.43-2.18-3.05v-21.18c2.16-1.83,4.15-2.74,5.98-2.74,2.49,0,3.81,1.17,3.97,3.51v25.38h.03v3.61c-.85.41-1.67.87-2.44,1.36-4.02,2.56-6.65,6.4-9.76,9.9-2.12,2.39-4.37,4.68-6.92,6.63-4.52,3.43-11.64,3.79-15.12-1.38-1.26-1.87-1.28-4.75.52-6.09,1.61-1.2,3.9-.77,5.76-1.53,1.25-.5,2.27-1.59,2.6-2.9.34-1.31-.06-2.8-1.08-3.69-1.53-1.36-3.96-1.08-5.78-.12-2.99,1.57-5.07,4.76-5.29,8.13-.15,2.27.5,4.55,1.68,6.5,1.73,2.85,4.62,4.98,7.88,5.67,12.33,2.6,19.92-11.11,27.96-18.54v.35c0,.18,0,.37,0,.55.11,2.62,1.23,5.08,3.16,6.86l.51.42c1.46,1.08,3.21,1.74,5.02,1.9,4.33.39,10.02-1.44,11.61-5.93.23-.66.36-1.33.37-1.99.06-1.96-.77-3.85-2.23-5.28ZM176.76,197.33c-.56,2.11-2.24,4.52-4.58,4.73-.02,0-.04,0-.04,0-.07,0-.15.01-.22,0-1.54-.08-2.3-2.8-2.65-5.73,0,0,0-.02,0-.02-.21-1.73-.27-3.53-.27-4.88v-3.08c.87-.09,1.74-.05,2.6.15,1.5.35,2.84,1.2,3.85,2.37,1.08,1.25,1.61,2.9,1.59,4.54,0,.64-.09,1.28-.26,1.91Z"/>
    <path class="st4" d="M173.43,184.3v-.62l.87-.25c.83-.25,1.4-.62,1.71-1.12.31-.5.47-1.16.47-1.99v-19.5c0-.87-.16-1.53-.47-1.96-.31-.44-.88-.74-1.71-.9l-.87-.19v-.62l11.4-3.68.62.62-.19,8.85v17.44c0,.83.16,1.49.47,1.99.31.5.86.87,1.65,1.12l.62.19v.62h-14.58ZM180.79,150.16c-1.41,0-2.61-.45-3.58-1.34-.98-.89-1.46-2.02-1.46-3.39s.49-2.55,1.46-3.43c.97-.87,2.17-1.31,3.58-1.31s2.59.44,3.55,1.31c.96.87,1.43,2.02,1.43,3.43s-.48,2.5-1.43,3.39c-.96.89-2.14,1.34-3.55,1.34Z"/>
    <path class="st4" d="M108.88,144.95c-.68-3.26-2.82-6.15-5.67-7.88-1.95-1.17-4.24-1.82-6.51-1.67-3.37.22-6.56,2.3-8.13,5.29-.95,1.82-1.24,4.26.12,5.79.89,1.02,2.39,1.42,3.69,1.08,1.31-.33,2.4-1.36,2.9-2.6.75-1.86.32-4.15,1.53-5.75,1.34-1.8,4.21-1.78,6.08-.53,5.18,3.48,4.82,10.6,1.38,15.12-1.94,2.55-4.23,4.8-6.63,6.92-2.84,2.53-5.9,4.74-8.32,7.64l3.6-10.32c.29-.83.65-1.45,1.09-1.87.44-.41,1.05-.72,1.84-.93l1.81-.44v-.62h-9.03v.62l1.56.38c.83.25,1.33.64,1.49,1.18.16.54.08,1.23-.25,2.06l-5.42,15.32s0,.02-.01.03c-.24.54-.49,1.15-.71,1.81l-6.5-17.28c-.62-1.75-.13-2.83,1.49-3.24l1.12-.25v-.62h-16.14v.62l.87.25c1.41.45,2.41,1.39,2.99,2.8l11.03,26.48h3.61l.22-.33c0-.09,0-.17-.01-.26h0s.77-2.21.77-2.21t0,0c.84-1.96,2.35-4.75,4.92-7.78.07-.08.14-.17.21-.25.17-.2.33-.38.48-.55h-.01c.11-.12.21-.23.32-.34.12-.13.23-.24.33-.34.06-.06.12-.12.17-.18.16-.17.34-.34.51-.51,0,0,.01,0,.01,0h0c.44-.44.88-.86,1.34-1.29.01-.02.03-.03.05-.05h0c7.59-7.1,18.09-14.3,15.79-25.23Z"/>
    <path class="st2" d="M213.93,114.98c-4.82,3.38-18.06,11.92-27.66,10.75-6.09-.74-10.34-4.47-13.03-7.94-.7-.9-.95-1.88-.88-2.81h-5.4c2.24,3.42,5.22,8.51,13.67,12.52,12.7,6.03,29.6-5.86,36.44-11.4l.07-1.12h-3.21Z"/>
    <path class="st2" d="M184.98,115.9c7.6,5.88,21.44,1.52,27.64-.91h-28.85c.39.29.8.59,1.21.91Z"/>
    <path class="st1" d="M148.53,113.05s0,.03,0,.05v1.88h1.04c.33-.57.68-1.13,1.03-1.69h2.73c-.38.56-.74,1.12-1.1,1.69h4.68c.18-.86.49-1.49.81-1.93h-9.2Z"/>
    <path class="st1" d="M212.62,114.98c1.96-.77,3.16-1.34,3.16-1.34,0,0-.68.52-1.85,1.34h3.21l.09-1.34,2.1.48v.08c.52-.46.81-.72.81-.72,0,0-.28.31-.8.87l.02.64h6.49v-1.88s0-.04,0-.05h-44.9c.87.55,1.81,1.19,2.82,1.93h28.85Z"/>
    <path class="st1" d="M172.35,114.98c.05-.7.29-1.36.66-1.93h-7.44c.46.55.9,1.2,1.38,1.93h5.4Z"/>
    <path class="st1" d="M219.33,114.34c-.53.56-1.31,1.36-2.3,2.34l-5.44,83.06c5.16,1.77,10.48,11.13,10.48,11.13l-2.72-95.89-.02-.64Z"/>
    <path class="st1" d="M217.23,113.64l-.09,1.34-.07,1.12c.97-.78,1.74-1.44,2.26-1.9v-.08s-2.1-.48-2.1-.48Z"/>
    <path class="st1" d="M207.96,195.61c-.28.06-.57.12-.85.17,1.01,1.69,1.56,2.99,1.56,2.99l6.13-78.37-14.35,68.53c2.14.96,3.95,2.9,5.32,4.8.34-.06.67-.12,1.01-.19.48.77.88,1.48,1.18,2.06Z"/>
    <path class="st1" d="M199,185.88l12.26-61.76-20.32,46.92c5.48,4.03,8.06,14.84,8.06,14.84Z"/>
    <path class="st1" d="M219.33,114.34c.52-.55.8-.87.8-.87,0,0-.28.26-.8.72-.52.46-1.29,1.12-2.26,1.9-6.84,5.54-23.75,17.44-36.44,11.4-8.44-4.01-11.43-9.11-13.67-12.52-.48-.73-.93-1.38-1.38-1.93-1.53-1.84-3.19-2.52-6.72-1.02,0,0-.58.25-1.12,1.02-.32.45-.63,1.07-.81,1.93-.38,1.8-.21,4.62,1.62,8.98,4.19,10,14.03,17.58,30.96,11.29,12.1-4.5,22.56-13.69,27.54-18.56,1-.98,1.78-1.78,2.3-2.34Z"/>
    <path class="st1" d="M173.23,117.79c2.69,3.47,6.94,7.2,13.03,7.94,9.6,1.17,22.84-7.37,27.66-10.75,1.17-.82,1.85-1.34,1.85-1.34,0,0-1.2.58-3.16,1.34-6.2,2.43-20.04,6.8-27.64.91-.42-.32-.82-.62-1.21-.91-1.01-.75-1.95-1.39-2.82-1.93-.94-.59-1.81-1.08-2.6-1.48-2.15-1.06-4.27-.14-5.32,1.48-.37.58-.61,1.24-.66,1.93-.07.93.18,1.91.88,2.81Z"/>
    <path class="st1" d="M225.83,114.98v.18c0,.72.7,1.23,1.38,1.02l1.12-.35c.94,0,1.69-.76,1.69-1.69s-.76-1.69-1.69-1.69l-1.1-.36c-.67-.22-1.36.26-1.39.96,0,.02,0,.03,0,.05v1.88Z"/>
    <path class="st1" d="M148.53,113.05c-.03-.7-.72-1.18-1.39-.96l-1.1.36c-.94,0-1.69.76-1.69,1.69s.76,1.69,1.69,1.69l1.12.35c.69.21,1.38-.3,1.38-1.02v-2.07s0-.04,0-.05Z"/>
    <path class="st1" d="M183.57,195.18s0,.09,0,.14c4.17,1.01,8.47,1.53,12.84,1.53,3.63,0,7.21-.36,10.71-1.06.28-.06.57-.11.85-.17-.3-.58-.7-1.29-1.18-2.06-.33.07-.67.13-1.01.19-3.04.56-6.17.85-9.37.85-4.5,0-8.87-.58-13.04-1.65.16.74.24,1.49.21,2.24Z"/>
    <path class="st1" d="M150.6,113.29c-.36.56-.7,1.12-1.03,1.69-1.21,2.05-2.28,4.18-3.22,6.4-2.83,6.7-4.27,13.81-4.27,21.14,0,3.46.32,6.87.96,10.21l2.16-.73c-.57-3.07-.87-6.24-.87-9.48,0-10.11,2.9-19.55,7.9-27.54.36-.57.72-1.13,1.1-1.69h-2.73Z"/>
    <path class="st1" d="M246.46,121.38c-2.74-6.47-6.65-12.28-11.64-17.27-4.99-4.99-10.8-8.91-17.27-11.64-6.7-2.83-13.81-4.27-21.14-4.27s-14.45,1.44-21.14,4.27c-6.47,2.74-12.28,6.65-17.27,11.64-2.25,2.25-4.28,4.67-6.09,7.25h2.81c9.51-12.68,24.66-20.91,41.69-20.91,28.71,0,52.07,23.36,52.07,52.07,0,19.63-10.92,36.76-27.01,45.63l.07,2.54c4.88-2.55,9.34-5.82,13.27-9.75,4.99-4.99,8.9-10.8,11.64-17.27,2.83-6.7,4.27-13.81,4.27-21.14s-1.44-14.45-4.27-21.14Z"/>
    <path class="st4" d="M62.39,181.97c-.27-.48-.4-1.13-.4-1.96v-32.52c0-.83.13-1.5.4-1.99.27-.5.82-.89,1.65-1.18l1.25-.5v-.62h-16.01v.62l1.25.5c.87.29,1.43.69,1.68,1.18.25.5.37,1.16.37,1.99v32.52c0,.83-.14,1.49-.4,1.99-.27.5-.82.89-1.65,1.18l-1.25.5v.62h16.01v-.62l-1.25-.5c-.83-.33-1.38-.74-1.65-1.22Z"/>
    <path class="st0" d="M184.34,148.83c.96-.89,1.43-2.02,1.43-3.39s-.48-2.55-1.43-3.43c-.96-.87-2.14-1.31-3.55-1.31s-2.61.44-3.58,1.31c-.98.87-1.46,2.02-1.46,3.43s.49,2.5,1.46,3.39c.97.89,2.17,1.34,3.58,1.34s2.59-.45,3.55-1.34Z"/>
    <path class="st4" d="M176.02,158.85c.31.44.47,1.09.47,1.96v19.5c0,.83-.16,1.5-.47,1.99-.31.5-.88.87-1.71,1.12l-.87.25v.62h14.58v-.62l-.62-.19c-.79-.25-1.34-.62-1.65-1.12-.31-.5-.47-1.16-.47-1.99v-17.44l.19-8.85-.62-.62-11.4,3.68v.62l.87.19c.83.17,1.4.47,1.71.9Z"/>
  </g>
  <path class="st3" d="M150,7.28c78.82,0,142.72,63.9,142.72,142.72s-63.9,142.72-142.72,142.72S7.28,228.82,7.28,150,71.18,7.28,150,7.28M150,5.28c-38.66,0-75,15.05-102.34,42.39C20.33,75,5.28,111.34,5.28,150s15.05,75,42.39,102.34c27.33,27.33,63.68,42.39,102.34,42.39s75-15.05,102.34-42.39c27.33-27.33,42.39-63.68,42.39-102.34s-15.05-75-42.39-102.34c-27.33-27.33-63.68-42.39-102.34-42.39h0Z"/>
</svg>